<svg xmlns="http://www.w3.org/2000/svg" viewBox="0 0 48 48" width="48" height="48">
  <defs>
    <linearGradient id="lusail-fav-gold" x1="0" y1="0" x2="1" y2="1">
      <stop offset="0" stop-color="#ecd29a"/>
      <stop offset="0.5" stop-color="#c9a25e"/>
      <stop offset="1" stop-color="#9a7330"/>
    </linearGradient>
  </defs>
  <rect width="48" height="48" rx="11" fill="#06120d"/>
  <circle cx="24" cy="24" r="20" fill="url(#lusail-fav-gold)"/>
  <circle cx="24" cy="24" r="20" fill="none" stroke="#06120d" stroke-opacity="0.18" stroke-width="1.4"/>
  <circle cx="24" cy="24" r="16.6" fill="none" stroke="#06120d" stroke-opacity="0.22" stroke-width="0.9"/>
  <g fill="none" stroke="#06120d" stroke-width="1.7" stroke-linecap="round" stroke-linejoin="round" stroke-opacity="0.92">
    <path d="M20.4 13.8c-1.2 1.3-1.2 2.6 0 3.9"/>
    <path d="M24 13.1c-1.2 1.3-1.2 2.6 0 3.9"/>
    <path d="M27.6 13.8c-1.2 1.3-1.2 2.6 0 3.9"/>
    <path d="M16 22h16l-1.3 7.5a3.6 3.6 0 0 1-3.55 3h-6.3a3.6 3.6 0 0 1-3.55-3L16 22Z"/>
    <path d="M31.7 23.8c3.3.45 3.3 5.7 0 6.15"/>
    <path d="M14.6 34.6h18.8"/>
  </g>
</svg>
